<svg width="41" height="40" viewBox="0 0 41 40" fill="none" xmlns="http://www.w3.org/2000/svg">
<g clip-path="url(#clip0_6_105)">
<path d="M6.54465 7.10938H1.85715C1.20941 7.10938 0.685272 7.63352 0.685272 8.28125C0.685272 8.92898 1.20941 9.45312 1.85715 9.45312H3.02902V14.1406H5.37277V9.45312H6.54465C7.19238 9.45312 7.71652 8.92898 7.71652 8.28125C7.71652 7.63352 7.19238 7.10938 6.54465 7.10938Z" fill="#FFC20E"/>
<path d="M37.1696 14.1406H35.9978V9.23727C37.3589 8.75187 38.3415 7.46328 38.3415 5.9375C38.3415 3.99891 36.7645 2.42188 34.8259 2.42188C32.8873 2.42188 31.3103 3.99891 31.3103 5.9375C31.3103 7.46328 32.2929 8.75187 33.654 9.23727V14.1406H32.4821C31.8344 14.1406 31.3103 14.6648 31.3103 15.3125C31.3103 15.9602 31.8344 16.4844 32.4821 16.4844H33.654V18.8281H35.9978V16.4844H37.1696C37.8174 16.4844 38.3415 15.9602 38.3415 15.3125C38.3415 14.6648 37.8174 14.1406 37.1696 14.1406Z" fill="#FFC20E"/>
<path d="M38.3415 21.1719H8.8884C7.59637 21.1719 6.54465 20.1202 6.54465 18.8281V17.6562C6.54465 17.0085 6.02051 16.4844 5.37277 16.4844H3.02902C2.38129 16.4844 1.85715 17.0085 1.85715 17.6562V18.8281C1.85715 22.7054 5.01113 25.8594 8.8884 25.8594H12.7711C13.8891 32.5077 19.6566 37.5781 26.6228 37.5781C34.3893 37.5781 40.6853 31.2822 40.6853 23.5156C40.6853 22.2212 39.636 21.1719 38.3415 21.1719Z" fill="#FFC20E"/>
<path d="M27.7946 14.1406H26.6228V9.23727C27.9839 8.75187 28.9665 7.46328 28.9665 5.9375C28.9665 3.99891 27.3895 2.42188 25.4509 2.42188C23.5123 2.42188 21.9353 3.99891 21.9353 5.9375C21.9353 7.46328 22.9179 8.75187 24.279 9.23727V14.1406H23.1071C22.4594 14.1406 21.9353 14.6648 21.9353 15.3125C21.9353 15.9602 22.4594 16.4844 23.1071 16.4844H24.279V18.8281H26.6228V16.4844H27.7946C28.4424 16.4844 28.9665 15.9602 28.9665 15.3125C28.9665 14.6648 28.4424 14.1406 27.7946 14.1406Z" fill="#FFC20E"/>
<path d="M18.4196 14.1406H17.2478V9.23727C18.6089 8.75187 19.5915 7.46328 19.5915 5.9375C19.5915 3.99891 18.0145 2.42188 16.0759 2.42188C14.1373 2.42188 12.5603 3.99891 12.5603 5.9375C12.5603 7.46328 13.5429 8.75187 14.904 9.23727V14.1406H13.7321C13.0844 14.1406 12.5603 14.6648 12.5603 15.3125C12.5603 15.9602 13.0844 16.4844 13.7321 16.4844H14.904V18.8281H17.2478V16.4844H18.4196C19.0674 16.4844 19.5915 15.9602 19.5915 15.3125C19.5915 14.6648 19.0674 14.1406 18.4196 14.1406Z" fill="#FFC20E"/>
</g>
<defs>
<clipPath id="clip0_6_105">
<rect width="40" height="40" fill="white" transform="translate(0.685272)"/>
</clipPath>
</defs>
</svg>
