<svg width="41" height="40" viewBox="0 0 41 40" fill="none" xmlns="http://www.w3.org/2000/svg">
<g clip-path="url(#clip0_6_98)">
<path d="M36.6265 6.52673H3.65778C1.71926 6.52673 0.142151 8.10384 0.142151 10.0424V29.9574C0.142151 31.896 1.71926 33.4731 3.65778 33.4731H36.6265C38.565 33.4731 40.1422 31.896 40.1422 29.9574V10.0424C40.1422 8.10384 38.565 6.52673 36.6265 6.52673ZM13.6093 28.9462C8.67637 28.9462 4.66309 24.9329 4.66309 19.9999C4.66309 15.067 8.67637 11.0537 13.6093 11.0537C18.5423 11.0537 22.5556 15.067 22.5556 19.9999C22.5556 24.9329 18.5423 28.9462 13.6093 28.9462ZM27.0844 16.6664V26.6207C27.0844 27.2679 26.5597 27.7926 25.9125 27.7926C25.2654 27.7926 24.7407 27.2679 24.7407 26.6207V16.6664C24.3197 16.4887 24.0241 16.072 24.0241 15.5863C24.0241 15.1006 24.3197 14.684 24.7407 14.5063V13.6381C24.7407 12.9909 25.2654 12.4662 25.9125 12.4662C26.5597 12.4662 27.0844 12.9909 27.0844 13.6381V14.5063C27.5055 14.684 27.8011 15.1006 27.8011 15.5863C27.8011 16.072 27.5055 16.4887 27.0844 16.6664ZM31.3392 25.1813V26.6206C31.3392 27.2678 30.8145 27.7925 30.1673 27.7925C29.5201 27.7925 28.9954 27.2678 28.9954 26.6206V25.1813C28.5744 25.0036 28.2788 24.587 28.2788 24.1012C28.2788 23.6155 28.5743 23.1988 28.9954 23.0211V13.6381C28.9954 12.9909 29.5201 12.4662 30.1673 12.4662C30.8145 12.4662 31.3392 12.9909 31.3392 13.6381V23.0212C31.7603 23.1989 32.0558 23.6156 32.0558 24.1013C32.0558 24.587 31.7603 25.0036 31.3392 25.1813ZM35.5939 16.6664V26.6207C35.5939 27.2679 35.0693 27.7926 34.4221 27.7926C33.7749 27.7926 33.2502 27.2679 33.2502 26.6207V16.6664C32.8292 16.4888 32.5336 16.072 32.5336 15.5863C32.5336 15.1006 32.8291 14.6839 33.2502 14.5063V13.6381C33.2502 12.9909 33.7749 12.4662 34.4221 12.4662C35.0693 12.4662 35.5939 12.9909 35.5939 13.6381V14.5063C36.015 14.684 36.3106 15.1006 36.3106 15.5863C36.3106 16.072 36.015 16.4887 35.5939 16.6664Z" fill="#D03184"/>
<path d="M13.6096 16.6178C11.7446 16.6178 10.2274 18.1351 10.2274 20.0001C10.2274 21.8651 11.7446 23.3823 13.6096 23.3823C15.4746 23.3823 16.9919 21.8651 16.9919 20.0001C16.9919 18.1351 15.4746 16.6178 13.6096 16.6178ZM13.6096 21.0386C13.037 21.0386 12.5711 20.5727 12.5711 20.0001C12.5711 19.4274 13.037 18.9615 13.6096 18.9615C14.1823 18.9615 14.6481 19.4274 14.6481 20.0001C14.6481 20.5727 14.1823 21.0386 13.6096 21.0386Z" fill="#D03184"/>
</g>
<defs>
<clipPath id="clip0_6_98">
<rect width="40" height="40" fill="white" transform="translate(0.142151)"/>
</clipPath>
</defs>
</svg>
