<svg width="41" height="40" viewBox="0 0 41 40" fill="none" xmlns="http://www.w3.org/2000/svg">
<g clip-path="url(#clip0_6_119)">
<path d="M24.6552 12.7817L26.2923 11.1446L29.6736 14.526L28.0366 16.1631L24.6552 12.7817Z" fill="#D03184"/>
<path d="M21.3809 16.056L23.018 14.4189L26.3993 17.8003L24.7622 19.4374L21.3809 16.056Z" fill="#D03184"/>
<path d="M30.2342 5.18951C30.0471 5.27858 29.9637 5.49748 30.0445 5.68779L30.0597 5.72365L30.4525 6.99162C30.4314 7.01053 30.4104 7.02936 30.39 7.04967L27.934 9.50561L31.3159 12.8874L33.7719 10.4315C33.7994 10.404 33.8255 10.3758 33.8504 10.3471L35.1198 10.7403C35.3017 10.7966 35.5005 10.7094 35.5824 10.5375C37.176 7.18928 40.407 5.63631 40.5483 5.56975C40.6428 5.52592 40.7166 5.44428 40.7507 5.34569C40.7848 5.24725 40.7772 5.13748 40.73 5.04459L39.1032 1.84647C39.0848 1.81022 39.0608 1.77725 39.032 1.7485C39.0032 1.71975 38.9702 1.69576 38.9341 1.6774L35.7814 0.0737315L35.7546 0.057169C35.6739 0.0074815 35.5781 -0.0107216 35.4847 0.00584088C35.3606 0.0278721 35.255 0.109278 35.202 0.223653C35.1865 0.257091 33.615 3.58045 30.2342 5.18951Z" fill="#D03184"/>
<path d="M21.6521 30.2374C21.6085 29.5353 22.0605 28.9081 22.7267 28.7461C23.9009 28.4606 24.9731 27.8538 25.8274 26.9913C26.4348 26.3781 26.9073 25.6624 27.232 24.8642C27.4077 24.4324 27.307 23.9381 26.9784 23.6095C26.9734 23.6045 26.9683 23.5995 26.9631 23.5945C26.6224 23.266 26.1162 23.178 25.6845 23.3722C24.5077 23.9016 22.9187 23.612 21.5192 22.684L23.129 21.0743L19.7471 17.6925L18.7276 18.712C18.5032 17.5913 18.7034 16.5385 19.3848 15.8571C19.5806 15.6612 19.811 15.5005 20.0695 15.3794C20.5173 15.1695 20.7823 14.6985 20.7292 14.2069C20.6762 13.7152 20.3168 13.3116 19.8346 13.202C17.6259 12.7003 15.3542 13.3464 13.7579 14.9303C12.8937 15.7878 12.2869 16.8641 12.0035 18.0426C11.8434 18.708 11.2165 19.1605 10.5127 19.1184C7.83695 18.9584 5.22281 19.9462 3.34046 21.8285C-0.085005 25.254 -0.085005 30.8276 3.34046 34.253L6.51867 37.4311C9.94414 40.8566 15.5177 40.8566 18.9432 37.4311C20.8315 35.5428 21.8187 32.921 21.6521 30.2374ZM12.6091 30.6028L10.169 28.1626C9.71687 27.7105 9.71687 26.9774 10.169 26.5252C10.6211 26.0731 11.3541 26.0731 11.8063 26.5252L14.2465 28.9654C14.6986 29.4175 14.6986 30.1506 14.2465 30.6028C13.7943 31.0549 13.0612 31.0549 12.6091 30.6028ZM16.2694 26.9425L13.8292 24.5024C13.3771 24.0502 13.3771 23.3172 13.8292 22.865C14.2813 22.4129 15.0144 22.4129 15.4666 22.865L17.9067 25.3052C18.3588 25.7573 18.3588 26.4903 17.9067 26.9425C17.4546 27.3946 16.7215 27.3946 16.2694 26.9425Z" fill="#D03184"/>
</g>
<defs>
<clipPath id="clip0_6_119">
<rect width="40" height="40" fill="white" transform="translate(0.77153)"/>
</clipPath>
</defs>
</svg>
