<svg width="41" height="40" viewBox="0 0 41 40" fill="none" xmlns="http://www.w3.org/2000/svg">
<g clip-path="url(#clip0_6_112)">
<path d="M37.8842 14.141H26.0876C24.7932 14.141 23.744 15.1903 23.744 16.4847C23.744 17.779 24.7933 18.8283 26.0876 18.8283H37.8842C39.1786 18.8283 40.2278 17.7789 40.2278 16.4847C40.2278 15.1903 39.1786 14.141 37.8842 14.141Z" fill="#2A2A2A"/>
<path d="M37.8841 21.1723H26.0876V24.5917C26.0876 26.5829 24.4694 28.2034 22.4816 28.2034C20.7685 28.2034 19.2819 26.9857 18.9501 25.3333L15.1748 5.08444C14.4816 1.61578 11.011 -0.731329 7.34501 0.208279C4.58134 0.918981 2.6508 3.52359 2.6508 6.54358V11.7977H1.4008C0.753067 11.7977 0.228928 12.3218 0.228928 12.9696C0.228928 13.6173 0.753067 14.1415 1.4008 14.1415H3.82259H6.16626C6.81345 14.1415 7.33813 13.6168 7.33813 12.9696V8.20412C7.33813 7.55678 7.86282 7.03225 8.51001 7.03225C9.15719 7.03225 9.68188 7.55678 9.68188 8.20412V14.1415V16.4851H8.51001C7.86227 16.4851 7.33813 17.0093 7.33813 17.657C7.33813 18.3047 7.86227 18.8289 8.51001 18.8289H9.68188V21.1725H8.51001C7.86227 21.1725 7.33813 21.6967 7.33813 22.3444C7.33813 22.9921 7.86227 23.5163 8.51001 23.5163H9.68188V24.6882V25.86H8.51001C7.86227 25.86 7.33813 26.3842 7.33813 27.0319C7.33813 27.6796 7.86227 28.2038 8.51001 28.2038H9.89274C11.0107 34.8519 16.778 40.0003 23.744 40.0003H23.7646L24.1754 39.9934C31.6917 39.7691 37.8843 33.1223 37.8843 25.2707L37.8841 21.1723Z" fill="#2A2A2A"/>
</g>
<defs>
<clipPath id="clip0_6_112">
<rect width="40" height="40" fill="white" transform="translate(0.228439)"/>
</clipPath>
</defs>
</svg>
