<svg width="41" height="40" viewBox="0 0 41 40" fill="none" xmlns="http://www.w3.org/2000/svg">
<g clip-path="url(#clip0_6_126)">
<path d="M39.8037 12.2983L28.0169 0.511381C27.5356 0.0299753 26.818 -0.127056 26.1792 0.10896C25.5406 0.345131 25.0978 0.931537 25.0457 1.61044L24.1129 13.7365L18.1043 19.7451L16.3904 18.0311C15.7096 17.3504 14.6056 17.3504 13.9247 18.0311C13.2439 18.7119 13.2439 19.8159 13.9247 20.4968L15.6386 22.2106L12.2109 25.6384L10.4971 23.9246C9.81647 23.2436 8.71249 23.2438 8.03147 23.9246C7.35061 24.6054 7.35061 25.7092 8.03147 26.3902L9.7453 28.1042L3.53125 34.3182L3.29078 34.0778C2.61 33.397 1.50602 33.397 0.825158 34.0778C0.1443 34.7585 0.1443 35.8625 0.825158 36.5434L2.29851 38.0167L3.77187 39.4901C4.11234 39.8305 4.55851 40.0007 5.0046 40.0007C5.45085 40.0007 5.89702 39.8303 6.23733 39.49C6.91819 38.8092 6.91819 37.7053 6.23733 37.0244L5.99687 36.7839L9.63069 33.1501C9.92334 33.9215 10.3772 34.6295 10.9782 35.2304C12.0946 36.3467 13.579 36.9616 15.1577 36.9616C16.7365 36.9616 18.2207 36.3467 19.337 35.2304L25.2308 29.3369C27.5352 27.0323 27.5352 23.2823 25.2306 20.9777C24.6296 20.377 23.9216 19.9232 23.1503 19.6304L26.5785 16.2022L38.7046 15.2695C39.3835 15.2173 39.9699 14.7746 40.2061 14.136C40.4423 13.4973 40.2852 12.7798 39.8037 12.2983ZM22.7652 26.8713L16.8714 32.7646C16.4136 33.2225 15.8051 33.4746 15.1578 33.4746C14.5104 33.4746 13.9015 33.2225 13.4438 32.7646C12.9861 32.3069 12.734 31.6983 12.734 31.0509C12.734 30.4035 12.9861 29.7948 13.4438 29.3371L19.3395 23.4414C19.7971 22.9851 20.4047 22.7337 21.0511 22.7337C21.6986 22.7337 22.3076 22.9858 22.7654 23.4434C23.71 24.3886 23.71 25.9263 22.7652 26.8713Z" fill="#FFC20E"/>
</g>
<defs>
<clipPath id="clip0_6_126">
<rect width="40" height="40" fill="white" transform="translate(0.314758)"/>
</clipPath>
</defs>
</svg>
