<svg xmlns="http://www.w3.org/2000/svg" xmlns:xlink="http://www.w3.org/1999/xlink" version="1.1" id="Laag_1" x="0px" y="0px" viewBox="0 0 46 48" style="enable-background:new 0 0 46 48;" xml:space="preserve" width="46"  height="48" >
<style type="text/css">
	.st0{fill:#000000;}
</style>
<path class="st0" d="M29,14.4c-0.1-1.5-0.9-2.6-2-3.4c-1.1-0.9-2.5-1.3-3.9-1.3c-2.5,0-5.3,0.5-5.3,3.5c0,1.3,1.1,1.9,2,2.4  c2.9,1.2,9.5,1.6,15.3,3.5C40.9,20.9,46,24.4,46,31.9C46,44.5,33.9,48,22.8,48C12.1,48,0.3,43.6,0,31.9h16.6c0.1,1.6,0.8,2.9,2.1,4  c0.9,0.8,2.6,1.3,4.7,1.3c2.3,0,5.9-0.9,5.9-3.5c0-2.6-1.5-3.4-9.6-4.8C6.4,26.6,1.1,22.4,1.1,14.5C1.1,3,13.5,0,22.6,0  c9.9,0,21.7,2.7,22.2,14.4H29z"/>
</svg>