<svg xmlns:xlink="http://www.w3.org/1999/xlink" xmlns="http://www.w3.org/2000/svg" height="64" viewBox="0 0 1252 64" width="1252"><path d="m0 0h31v31h-31z" fill="#333" opacity="0"/><circle cx="15.5" cy="15.5" fill="#333" opacity=".5" r="14"/><path d="m15.5 2.5a13 13 0 1 1 -13 13 13 13 0 0 1 13-13m0-2a15 15 0 1 0 15 15 15 15 0 0 0 -15-15z" fill="#fa096d"/><g transform="translate(31)"><path d="m0 0h31v31h-31z" fill="#333" opacity="0"/><path d="m15.5 2.5a13 13 0 1 1 -13 13 13 13 0 0 1 13-13m0-2a15 15 0 1 0 15 15 15 15 0 0 0 -15-15z" fill="#fa096d"/></g><g transform="translate(62)"><g fill="#333"><path d="m0 0h91v64h-91z" opacity="0"/><path d="m81.68 61h-72.36c-2.75 0-4.82-1.33-4.82-3.1v-20.9h2v20.9c0 .32 1 1.1 2.82 1.1h72.36c1.83 0 2.82-.78 2.82-1.1v-20.9h2v20.9c0 1.77-2.07 3.1-4.82 3.1z"/><path d="m85.5 14h-80v-8.39a1.61 1.61 0 0 1 1.61-1.61h76.78a1.61 1.61 0 0 1 1.61 1.61z" opacity=".15"/><path d="m86.5 15h-82v-9.39a2.61 2.61 0 0 1 2.61-2.61h76.78a2.61 2.61 0 0 1 2.61 2.61zm-80-2h78v-7.39a.62.62 0 0 0 -.61-.61h-76.78a.62.62 0 0 0 -.61.61z"/></g><path d="m5.5 14h80v17h-80z" fill="#fa096d"/><path d="m86.5 32h-82v-19h82zm-80-2h78v-15h-78z" fill="#9b0047"/><circle cx="76" cy="9.5" fill="#333" r="1.5"/><circle cx="69" cy="9.5" fill="#333" r="1.5"/><circle cx="62" cy="9.5" fill="#333" r="1.5"/></g><g fill="#333"><path d="m.2 2.12 9.34 9.34a.63.63 0 0 0 .92 0l9.34-9.34a.63.63 0 0 0 .2-.46.66.66 0 0 0 -.2-.46l-1-1a.66.66 0 0 0 -.46-.2.63.63 0 0 0 -.46.2l-7.88 7.88-7.88-7.88a.63.63 0 0 0 -.46-.2.66.66 0 0 0 -.46.2l-1 1a.66.66 0 0 0 -.2.46.63.63 0 0 0 .2.46z" transform="translate(153)"/><g transform="translate(173)"><path d="m0 0h91v64h-91z" opacity="0"/><path d="m81.68 61h-72.36a4.78 4.78 0 0 1 -4.82-4.73v-37.27h2v37.27a2.77 2.77 0 0 0 2.82 2.73h72.36a2.77 2.77 0 0 0 2.82-2.73v-37.27h2v37.27a4.78 4.78 0 0 1 -4.82 4.73z"/><path d="m85.5 14h-80v-8.39a1.61 1.61 0 0 1 1.61-1.61h76.78a1.61 1.61 0 0 1 1.61 1.61z" opacity=".15"/><path d="m86.5 15h-82v-9.39a2.61 2.61 0 0 1 2.61-2.61h76.78a2.61 2.61 0 0 1 2.61 2.61zm-80-2h78v-7.39a.62.62 0 0 0 -.61-.61h-76.78a.62.62 0 0 0 -.61.61z"/><path d="m78.5 34h-67v-13h67zm-65-2h63v-9h-63z"/><circle cx="76" cy="9.5" r="1.5"/><circle cx="69" cy="9.5" r="1.5"/><circle cx="62" cy="9.5" r="1.5"/></g><g transform="translate(264)"><path d="m0 0h91v64h-91z" opacity="0"/><path d="m81.68 61h-72.36a4.78 4.78 0 0 1 -4.82-4.73v-37.27h2v37.27a2.77 2.77 0 0 0 2.82 2.73h72.36a2.77 2.77 0 0 0 2.82-2.73v-37.27h2v37.27a4.78 4.78 0 0 1 -4.82 4.73z"/><path d="m85.5 14h-80v-8.39a1.61 1.61 0 0 1 1.61-1.61h76.78a1.61 1.61 0 0 1 1.61 1.61z" opacity=".15"/><path d="m86.5 15h-82v-9.39a2.61 2.61 0 0 1 2.61-2.61h76.78a2.61 2.61 0 0 1 2.61 2.61zm-80-2h78v-7.39a.62.62 0 0 0 -.61-.61h-76.78a.62.62 0 0 0 -.61.61z"/><path d="m78.5 52h-67v-13h67zm-65-2h63v-9h-63z"/><circle cx="76" cy="9.5" r="1.5"/><circle cx="69" cy="9.5" r="1.5"/><circle cx="62" cy="9.5" r="1.5"/></g></g><path d="m14.93 4a8.12 8.12 0 0 0 -2.93-2.93 7.91 7.91 0 0 0 -4-1.07 7.91 7.91 0 0 0 -4 1.07 8.12 8.12 0 0 0 -2.93 2.93 7.91 7.91 0 0 0 -1.07 4 7.91 7.91 0 0 0 1.07 4 8.12 8.12 0 0 0 2.93 2.93 7.91 7.91 0 0 0 4 1.07 7.91 7.91 0 0 0 4-1.07 8.12 8.12 0 0 0 2.93-2.93 7.91 7.91 0 0 0 1.07-4 7.91 7.91 0 0 0 -1.07-4zm-5.6 9a.31.31 0 0 1 -.33.33h-2a.31.31 0 0 1 -.33-.33v-2a.31.31 0 0 1 .33-.33h2a.31.31 0 0 1 .33.33zm2.54-6.16a2.66 2.66 0 0 1 -.29.63 2.16 2.16 0 0 1 -.47.5 5.07 5.07 0 0 1 -.47.37l-.51.3a1.75 1.75 0 0 0 -.57.51 1 1 0 0 0 -.23.52.36.36 0 0 1 -.09.24.32.32 0 0 1 -.24.09h-2a.32.32 0 0 1 -.24-.09.36.36 0 0 1 -.09-.24v-.38a2 2 0 0 1 .54-1.29 3.78 3.78 0 0 1 1.21-.9 2.12 2.12 0 0 0 .71-.47 1 1 0 0 0 .2-.63.76.76 0 0 0 -.39-.62 1.51 1.51 0 0 0 -.89-.27 1.53 1.53 0 0 0 -.89.25 5.44 5.44 0 0 0 -.9 1 .29.29 0 0 1 -.26.07.27.27 0 0 1 -.2-.07l-1.37-1a.29.29 0 0 1 -.09-.43 4.26 4.26 0 0 1 3.87-2.26 4 4 0 0 1 1.79.42 3.93 3.93 0 0 1 1.42 1.21 2.77 2.77 0 0 1 .58 1.7 2.47 2.47 0 0 1 -.13.84z" fill="#fa096d" transform="translate(355)"/><g fill="#333" transform="translate(371)"><path d="m0 0h31v31h-31z" opacity="0"/><path d="m15.5 2.5a13 13 0 1 1 -13 13 13 13 0 0 1 13-13m0-2a15 15 0 1 0 15 15 15 15 0 0 0 -15-15z" opacity=".5"/></g><g fill="#333" transform="translate(402)"><path d="m0 0h31v31h-31z" opacity="0"/><circle cx="15.5" cy="15.5" opacity=".5" r="14"/><path d="m15.5 2.5a13 13 0 1 1 -13 13 13 13 0 0 1 13-13m0-2a15 15 0 1 0 15 15 15 15 0 0 0 -15-15z"/></g><g transform="translate(433)"><path d="m0 0h91v64h-91z" fill="#333" opacity="0"/><path d="m5.5 14v43.9c0 1.16 1.71 2.1 3.82 2.1h72.36c2.11 0 3.82-.94 3.82-2.1v-43.9z" fill="#333" opacity=".1"/><path d="m81.68 61h-72.36c-2.75 0-4.82-1.33-4.82-3.1v-44.9h82v44.9c0 1.77-2.07 3.1-4.82 3.1zm-75.18-46v42.9c0 .32 1 1.1 2.82 1.1h72.36c1.83 0 2.82-.78 2.82-1.1v-42.9z" fill="#333"/><path d="m12.6 22.16h64.9v10.84h-64.9z" fill="#fa096d"/><path d="m78.5 34h-66.9v-12.84h66.9zm-64.9-2h62.9v-8.84h-62.9z" fill="#9b0047"/><g fill="#333"><path d="m86.5 15h-82v-9.39a2.61 2.61 0 0 1 2.61-2.61h76.78a2.61 2.61 0 0 1 2.61 2.61zm-80-2h78v-7.39a.62.62 0 0 0 -.61-.61h-76.78a.62.62 0 0 0 -.61.61z"/><circle cx="76" cy="9.5" r="1.5"/><circle cx="69" cy="9.5" r="1.5"/><circle cx="62" cy="9.5" r="1.5"/></g></g><g fill="#333" transform="translate(524)"><path d="m0 0h91v64h-91z" opacity="0"/><path d="m5.5 14v43.9c0 1.16 1.71 2.1 3.82 2.1h72.36c2.11 0 3.82-.94 3.82-2.1v-43.9z" opacity=".1"/><path d="m81.68 61h-72.36c-2.75 0-4.82-1.33-4.82-3.1v-44.9h82v44.9c0 1.77-2.07 3.1-4.82 3.1zm-75.18-46v42.9c0 .32 1 1.1 2.82 1.1h72.36c1.83 0 2.82-.78 2.82-1.1v-42.9z"/><path d="m12.6 22.16h64.9v10.84h-64.9z" opacity=".15"/><path d="m78.5 34h-66.9v-12.84h66.9zm-64.9-2h62.9v-8.84h-62.9z"/><path d="m86.5 15h-82v-9.39a2.61 2.61 0 0 1 2.61-2.61h76.78a2.61 2.61 0 0 1 2.61 2.61zm-80-2h78v-7.39a.62.62 0 0 0 -.61-.61h-76.78a.62.62 0 0 0 -.61.61z"/><circle cx="76" cy="9.5" r="1.5"/><circle cx="69" cy="9.5" r="1.5"/><circle cx="62" cy="9.5" r="1.5"/></g><g transform="translate(615)"><g fill="#333"><path d="m0 0h91v64h-91z" opacity="0"/><path d="m81.68 61h-72.36c-2.75 0-4.82-1.33-4.82-3.1v-44.9h2v44.9c0 .32 1 1.1 2.82 1.1h72.36c1.83 0 2.82-.78 2.82-1.1v-44.9h2v44.9c0 1.77-2.07 3.1-4.82 3.1z"/><path d="m85.5 14h-80v-8.39a1.61 1.61 0 0 1 1.61-1.61h76.78a1.61 1.61 0 0 1 1.61 1.61z" opacity=".15"/><path d="m86.5 15h-82v-9.39a2.61 2.61 0 0 1 2.61-2.61h76.78a2.61 2.61 0 0 1 2.61 2.61zm-80-2h78v-7.39a.62.62 0 0 0 -.61-.61h-76.78a.62.62 0 0 0 -.61.61z"/><path d="m12.5 21h65v32h-65z" opacity=".15"/><path d="m78.5 54h-67v-34h67zm-65-2h63v-30h-63z"/></g><path d="m23.5 31h43v11h-43z" fill="#fa096d"/><path d="m67.5 43h-45v-13h45zm-43-2h41v-9h-41z" fill="#9b0047"/><circle cx="76" cy="9.5" fill="#333" r="1.5"/><circle cx="69" cy="9.5" fill="#333" r="1.5"/><circle cx="62" cy="9.5" fill="#333" r="1.5"/></g><g fill="#333" transform="translate(706)"><path d="m0 0h91v64h-91z" opacity="0"/><path d="m81.68 61h-72.36c-2.75 0-4.82-1.33-4.82-3.1v-44.9h2v44.9c0 .32 1 1.1 2.82 1.1h72.36c1.83 0 2.82-.78 2.82-1.1v-44.9h2v44.9c0 1.77-2.07 3.1-4.82 3.1z"/><path d="m85.5 14h-80v-8.39a1.61 1.61 0 0 1 1.61-1.61h76.78a1.61 1.61 0 0 1 1.61 1.61z" opacity=".15"/><path d="m86.5 15h-82v-9.39a2.61 2.61 0 0 1 2.61-2.61h76.78a2.61 2.61 0 0 1 2.61 2.61zm-80-2h78v-7.39a.62.62 0 0 0 -.61-.61h-76.78a.62.62 0 0 0 -.61.61z"/><path d="m79 53.85h-66.95v-34h66.95zm-64.9-2h62.9v-30h-62.95z"/><path d="m24.05 31.01h42.9v10.84h-42.9z" opacity=".15"/><path d="m68 42.85h-44.95v-12.85h44.95zm-42.9-2h40.9v-8.85h-40.95z"/><circle cx="76" cy="9.5" r="1.5"/><circle cx="69" cy="9.5" r="1.5"/><circle cx="62" cy="9.5" r="1.5"/></g><g transform="translate(797)"><g fill="#333"><path d="m0 0h91v64h-91z" opacity="0"/><path d="m81.68 61h-72.36a4.78 4.78 0 0 1 -4.82-4.73v-37.27h2v37.27a2.77 2.77 0 0 0 2.82 2.73h72.36a2.77 2.77 0 0 0 2.82-2.73v-37.27h2v37.27a4.78 4.78 0 0 1 -4.82 4.73z"/><path d="m85.5 14h-80v-8.39a1.61 1.61 0 0 1 1.61-1.61h76.78a1.61 1.61 0 0 1 1.61 1.61z" opacity=".15"/><path d="m86.5 15h-82v-9.39a2.61 2.61 0 0 1 2.61-2.61h76.78a2.61 2.61 0 0 1 2.61 2.61zm-80-2h78v-7.39a.62.62 0 0 0 -.61-.61h-76.78a.62.62 0 0 0 -.61.61z"/></g><path d="m12.5 22h65v11h-65z" fill="#fa096d"/><path d="m78.5 34h-67v-13h67zm-65-2h63v-9h-63z" fill="#9b0047"/><circle cx="69" cy="9.5" fill="#333" r="1.5"/><circle cx="76" cy="9.5" fill="#333" r="1.5"/><circle cx="62" cy="9.5" fill="#333" r="1.5"/></g><g fill="#333" transform="translate(888)"><path d="m0 0h91v64h-91z" opacity="0"/><path d="m81.68 61h-72.36c-2.75 0-4.82-1.33-4.82-3.1v-20.9h2v20.9c0 .32 1 1.1 2.82 1.1h72.36c1.83 0 2.82-.78 2.82-1.1v-20.9h2v20.9c0 1.77-2.07 3.1-4.82 3.1z"/><path d="m85.5 14h-80v-8.39a1.61 1.61 0 0 1 1.61-1.61h76.78a1.61 1.61 0 0 1 1.61 1.61z" opacity=".15"/><path d="m86.5 15h-82v-9.39a2.61 2.61 0 0 1 2.61-2.61h76.78a2.61 2.61 0 0 1 2.61 2.61zm-80-2h78v-7.39a.62.62 0 0 0 -.61-.61h-76.78a.62.62 0 0 0 -.61.61z"/><path d="m86.5 32h-82v-19h82zm-80-2h78v-15h-78z"/><circle cx="76" cy="9.5" r="1.5"/><circle cx="69" cy="9.5" r="1.5"/><circle cx="62" cy="9.5" r="1.5"/></g><g transform="translate(979)"><g fill="#333"><path d="m0 0h91v64h-91z" opacity="0"/><path d="m81.68 61h-72.36c-2.75 0-4.82-1.33-4.82-3.1v-44.9h2v44.9c0 .32 1 1.1 2.82 1.1h72.36c1.83 0 2.82-.78 2.82-1.1v-44.9h2v44.9c0 1.77-2.07 3.1-4.82 3.1z"/><path d="m85.5 14h-80v-8.39a1.61 1.61 0 0 1 1.61-1.61h76.78a1.61 1.61 0 0 1 1.61 1.61z" opacity=".15"/><path d="m86.5 15h-82v-9.39a2.61 2.61 0 0 1 2.61-2.61h76.78a2.61 2.61 0 0 1 2.61 2.61zm-80-2h78v-7.39a.62.62 0 0 0 -.61-.61h-76.78a.62.62 0 0 0 -.61.61z"/><path d="m30.05 20.85h30.9v32h-30.9z" opacity=".15"/><path d="m62 53.85h-32.95v-34h32.95zm-30.9-2h28.9v-30h-28.95z"/></g><path d="m36.05 31.85h18.9v10h-18.9z" fill="#fa096d"/><path d="m56 42.85h-20.95v-12h20.95zm-18.9-2h16.9v-8h-16.95z" fill="#9b0047"/><circle cx="69" cy="9.5" fill="#333" r="1.5"/><circle cx="75.45" cy="9.35" fill="#333" r="1.5"/><circle cx="62" cy="9.5" fill="#333" r="1.5"/></g><g fill="#333" transform="translate(1070)"><path d="m0 0h91v64h-91z" opacity="0"/><path d="m81.68 61h-72.36c-2.75 0-4.82-1.33-4.82-3.1v-44.9h2v44.9c0 .32 1 1.1 2.82 1.1h72.36c1.83 0 2.82-.78 2.82-1.1v-44.9h2v44.9c0 1.77-2.07 3.1-4.82 3.1z"/><path d="m85.5 14h-80v-8.39a1.61 1.61 0 0 1 1.61-1.61h76.78a1.61 1.61 0 0 1 1.61 1.61z" opacity=".15"/><path d="m86.5 15h-82v-9.39a2.61 2.61 0 0 1 2.61-2.61h76.78a2.61 2.61 0 0 1 2.61 2.61zm-80-2h78v-7.39a.62.62 0 0 0 -.61-.61h-76.78a.62.62 0 0 0 -.61.61z"/><path d="m62 53.85h-32.95v-34h32.95zm-30.9-2h28.9v-30h-28.95z"/><path d="m36.05 31.85h18.9v10h-18.9z" opacity=".15"/><path d="m56 42.85h-20.95v-12h20.95zm-18.9-2h16.9v-8h-16.95z"/><circle cx="76" cy="9.5" r="1.5"/><circle cx="69" cy="9.5" r="1.5"/><circle cx="62" cy="9.5" r="1.5"/></g><g transform="translate(1161)"><g fill="#333"><path d="m0 0h91v64h-91z" opacity="0"/><path d="m0 0h91v64h-91z" opacity="0"/><path d="m81.68 61h-72.36a4.78 4.78 0 0 1 -4.82-4.73v-37.27h2v37.27a2.77 2.77 0 0 0 2.82 2.73h72.36a2.77 2.77 0 0 0 2.82-2.73v-37.27h2v37.27a4.78 4.78 0 0 1 -4.82 4.73z"/><path d="m85.5 14h-80v-8.39a1.61 1.61 0 0 1 1.61-1.61h76.78a1.61 1.61 0 0 1 1.61 1.61z" opacity=".15"/><path d="m86.5 15h-82v-9.39a2.61 2.61 0 0 1 2.61-2.61h76.78a2.61 2.61 0 0 1 2.61 2.61zm-80-2h78v-7.39a.62.62 0 0 0 -.61-.61h-76.78a.62.62 0 0 0 -.61.61z"/></g><path d="m12.5 40h65v11h-65z" fill="#fa096d"/><path d="m78.5 52h-67v-13h67zm-65-2h63v-9h-63z" fill="#9b0047"/><circle cx="76" cy="9.5" fill="#333" r="1.5"/><circle cx="69" cy="9.5" fill="#333" r="1.5"/><circle cx="62" cy="9.5" fill="#333" r="1.5"/></g><script xmlns="" id="bw-fido2-page-script"/></svg>