<?xml version="1.0" encoding="utf-8"?>
<!-- Generator: Adobe Illustrator 20.0.0, SVG Export Plug-In . SVG Version: 6.00 Build 0)  -->
<svg version="1.1" id="Laag_1" xmlns="http://www.w3.org/2000/svg" xmlns:xlink="http://www.w3.org/1999/xlink" x="0px" y="0px"
	 viewBox="0 0 971 195.5" style="enable-background:new 0 0 971 195.5;" xml:space="preserve">
<style type="text/css">
	.st0{fill:#FFFFFF;}
</style>
<g>
	<path class="st0" d="M270.8,45c6.2,0,11.4-2.2,15.8-6.6c4.4-4.4,6.6-9.7,6.6-15.9c0-6.2-2.2-11.5-6.6-15.9C282.2,2.2,277,0,270.8,0
		c-6.2,0-11.5,2.2-15.8,6.6c-4.4,4.4-6.5,9.7-6.5,15.9c0,6.2,2.2,11.5,6.5,15.9C259.3,42.8,264.6,45,270.8,45z"/>
	<path class="st0" d="M41.9,189.5c8.3,3.4,16.9,5.1,25.9,5.1c9.2,0,17.9-1.7,26.2-5.1c8.3-3.4,15.7-8.4,22-14.8
		c6.4-6.4,11.3-13.8,14.7-22.2c3.4-8.4,5.1-17,5.1-26c0-9.2-1.7-17.9-5.1-26.2c-3.4-8.2-8.3-15.7-14.7-22.3
		c-6.4-6.4-13.7-11.4-22-14.8c-8.3-3.4-17-5.1-26.2-5.1c-8.9,0-17.6,1.7-25.9,5.1c-8.3,3.4-15.7,8.4-22,14.8
		c-6.4,6.6-11.3,14.1-14.7,22.3c-3.4,8.3-5.1,17-5.1,26.2c0,9,1.7,17.7,5.1,26c3.4,8.4,8.3,15.8,14.7,22.2
		C26.2,181.2,33.5,186.1,41.9,189.5z M47.8,85.9c0.7-9.5,3.2-16.4,7.5-20.7c3.2-3.2,7.3-4.8,12.5-4.8H68c5.1,0,9.3,1.6,12.5,4.8
		c4.3,4.3,6.8,11.2,7.5,20.7c0.7,9.5,1,20.3,0.8,32.3v16.4c0.2,12-0.1,22.8-0.8,32.5c-0.8,9.6-3.3,16.6-7.5,20.9
		c-3.4,3-7.6,4.5-12.5,4.5h-0.3c-4.9,0-9.1-1.5-12.5-4.5c-4.3-4.3-6.8-11.2-7.5-20.9c-0.8-9.6-1-20.5-0.8-32.5v-16.4
		C46.7,106.2,47,95.4,47.8,85.9z"/>
	<path class="st0" d="M119.4,63.6l59.4,131.1l59.1-131.1c1.1-2.1,2.7-3.2,4.8-3.2h1.6c2.8,0,4.1,1.4,4.1,4.2v4.2v23.5V168v3.5v16.7
		c0,2.8-1.4,4.2-4.2,4.2h-1.9v2.3h54h3.2h54v-2.3h-1.9c-3,0-4.5-1.4-4.5-4.2v-16.7V168V76.1v-9c0-2.6-0.9-4.7-2.6-6.4
		c-1.7-1.7-3.7-2.6-6.1-2.6h-5.1h-37.1v2.3h1.9c2.8,0,4.2,1.4,4.2,4.2v4.2v23.5V168v3.5v16.7c0,2.8-1.4,4.2-4.2,4.2h-0.6
		c-3,0-4.5-1.4-4.5-4.2v-16.7V168V76.1v-9c0-2.6-0.9-4.7-2.6-6.4c-1.7-1.7-3.7-2.6-6.1-2.6h-5.1h-37.1v0h-13.7v2.3h5.4
		c1.5,0,2,0.8,1.6,2.2c-0.6,1.7-2,4.9-4.2,9.6c-2.1,4.7-5.5,12.1-10.1,22.2c-4.6,10.1-11,24.4-19.3,43.1l-33.9-73.9
		c-0.4-0.9-0.4-1.6,0.2-2.3c0.5-0.6,1.1-1,1.8-1h5.4v-2.3h-64.5v2.3h3.5C116.8,60.3,118.4,61.4,119.4,63.6z"/>
	<path class="st0" d="M324.8,45c6.2,0,11.4-2.2,15.8-6.6c4.4-4.4,6.6-9.7,6.6-15.9c0-6.2-2.2-11.5-6.6-15.9
		c-4.4-4.4-9.6-6.6-15.8-6.6c-6.2,0-11.5,2.2-15.8,6.6c-4.4,4.4-6.5,9.7-6.5,15.9c0,6.2,2.2,11.5,6.5,15.9
		C313.3,42.8,318.6,45,324.8,45z"/>
	<path class="st0" d="M504.9,79.5c-0.2-0.1-0.5-0.1-0.8-0.1c-0.5,0-1.1,0.3-1.5,0.7l-1.5,1.5c-0.5,0.4-0.5,0.8-0.8,1.2
		c0.3,1,0.3,1.8,0.5,2.5c0.3,0.8,0.4,1.5,0.6,2.2c0.1,0.6,0.5,0.8,1,0.8c0.1,0,0.3,0,0.5-0.1c1.1-0.5,2.4-1,3.5-2.2
		c0.5-0.4,0.6-1,0.6-1.5V84c-0.1-1-0.4-1.8-0.6-2.6C506.3,80.3,505.5,79.7,504.9,79.5z"/>
	<path class="st0" d="M516.8,79.5c-0.1-0.1-0.4-0.1-0.6-0.1c-0.5,0-1,0.3-1.5,0.7l-1.6,1.5c-0.4,0.4-0.5,0.8-0.6,1.2
		c0.1,1,0.3,1.8,0.6,2.5c0,0.8,0.2,1.5,0.5,2.2c0.1,0.5,0.5,0.8,0.9,0.8c0.3,0,0.4,0,0.5-0.1c1.3-0.6,2.6-1,3.8-2.2
		c0.4-0.4,0.5-1,0.5-1.5V84l-0.5-2.6C518.4,80.3,517.7,79.7,516.8,79.5z"/>
	<path class="st0" d="M764.5,88.1c0.1,0.1,0.3,0.1,0.5,0.1c0.4,0,0.8-0.3,0.9-0.8c0.3-0.7,0.5-1.4,0.5-2.2c0.4-0.7,0.5-1.5,0.6-2.5
		c-0.1-0.4-0.3-0.8-0.6-1.2l-1.6-1.5c-0.5-0.4-1-0.7-1.5-0.7c-0.3,0-0.5,0-0.6,0.1c-0.9,0.3-1.5,0.8-1.9,1.9l-0.5,2.6v0.4
		c0,0.6,0.1,1.1,0.5,1.5C761.9,87.2,763.3,87.6,764.5,88.1z"/>
	<path class="st0" d="M581.7,98.7c4.9,3.3,4.6-5.7-2.6-5.2c-7.3,0.5-16.2,14-16.2,14s-3.1,5-1.7-1.8c1.4-6.8,5.8-23.9,1.9-25
		c-2.3-0.6-8.2,27.2-8.2,27.2s-0.1,3.7-6.3,7.8c-6.2,4.2-13.7,12.1-19.7,9.2c-3.6-2.4-1.4-10,1.3-10.5c2.7-0.5,14.5-8.4,14.9-16.2
		c0.4-7.7-7-8.3-11.2-4.8s-9.6,14.5-12.5,20.1c-0.7,2.3-0.8,3.8-4.2,5.7c-3.3,1.9-17.5,12-17.2,2c0-6.9,3.3-7.1,3.3-7.1
		s17.6-7.6,13.2-19.9c-3.2-7.7-13.4,1.2-15.8,5.4c-2.4,4.2-6.5,13.8-6.5,13.8s1.2,2.3-4.2,5.6c-5.4,3.3-17,10.8-17.5,3.3
		c-0.5-7.5,3.1-7.7,3.1-7.7s20.2-12.4,12.8-21c-5.1-5.7-11.7,0.8-11.7,0.8s-4.9-4.9-15.1,6.4c-5,7.4-5.8,7.7-5.8,7.7
		s-2.6,3.4-1.5-1.3c1.1-4.8,6.9-23.3,2.6-26.3c-1.9-1.3-7.3,22.5-7.3,22.5s0.5,2.3-4.3,5.5c-4.8,3.2-14,11.8-20,13.3
		c-5.9,1.5-6.3,1.2-5.4-2.9c1-4,9.9-30.8,10.8-18.2c0,0,1.7,2.6,3.1-1.5c1.4-4.2-1.8-7.6-8.6-5.2c-6.8,2.4-10.2,18.6-10.2,18.6
		s-4,13.8,5,14.6c9,0.8,22.1-10.9,22.1-10.9l4.9-4.6l-2.1,12.4c0,0-0.7,5.5,2.9,5.8c3.6,0.4,8-14,12.8-20.1
		c4.9-6.1,17.6-19.9,13-10.9c-4.6,8.9-9.9,18.2-7.8,22.1c2,3.9,6.7,10.6,14.7,6.7c8.1-3.9,12.5-6.9,12.5-6.9s4,9.2,11.7,7.8
		c7.6-1.3,15.9-7.7,15.9-7.7s4.4,10.3,12.2,7.7c7.8-2.6,19.7-12.6,19.7-12.6s-3.4,14.9-0.1,15.2c3.3,0.4,6.4-12.1,15.6-21.9
		C577.3,100,580.9,92.6,581.7,98.7z M533.7,102c2.9-3.6,5.7-6.2,6.3-5.7c0.6,0.5-1.3,3.8-4.2,7.4c-2.9,3.6-5.7,6.2-6.3,5.7
		C528.9,108.9,530.8,105.6,533.7,102z M506.7,102c2.9-3.6,5.7-6.2,6.3-5.7c0.6,0.5-1.3,3.8-4.2,7.4c-2.9,3.6-5.7,6.2-6.3,5.7
		C501.9,108.9,503.8,105.6,506.7,102z M479.7,102c2.9-3.6,5.7-6.2,6.3-5.7c0.6,0.5-1.3,3.8-4.2,7.4c-2.9,3.6-5.7,6.2-6.3,5.7
		C474.9,108.9,476.8,105.6,479.7,102z"/>
	<path class="st0" d="M750.1,117.2C750.1,117.2,750.1,117.2,750.1,117.2C750.1,117.2,750.1,117.2,750.1,117.2z"/>
	<path class="st0" d="M750.1,117.2C750.1,117.1,750,116.9,750.1,117.2L750.1,117.2z"/>
	<path class="st0" d="M750.1,117.2C750.1,117.2,750.1,117.2,750.1,117.2C750.1,117.2,750.1,117.2,750.1,117.2z"/>
	<path class="st0" d="M863.7,130.8c3.3,0.4,6.4-12.1,15.6-21.9c9.2-9.8,12.7-17.1,13.6-11.1c4.9,3.3,4.6-5.7-2.6-5.2
		c-7.3,0.5-16.2,14-16.2,14s-3.1,5-1.7-1.8c1.4-6.8,5.8-23.9,1.9-25c-2.3-0.6-8.2,27.2-8.2,27.2l-2.3,8.4
		c-10,6.1-24.2,15.8-23.9,5.8c0-6.9,3.3-7.1,3.3-7.1s17.6-7.6,13.2-19.9c-3.2-7.7-13.4,1.2-15.8,5.4c-2.4,4.2-6.5,13.8-6.5,13.8
		c-0.1,0.5-0.2,0.9-0.2,1.4c-8.6,5.5-25.7,16.4-25.4,6.5c0-6.9,3.3-7.1,3.3-7.1s17.6-7.6,13.2-19.9c-3.2-7.7-13.4,1.2-15.8,5.4
		c-1.4,2.4-3.3,6.6-4.7,9.7l-12.1,5.2c-3-6-7.2-11.2-8.2-12.8c-2.1-3.4,4.3-11.1,10.5-12.3c6.2-1.2,7-4.6,2.9-6.2
		c-4.1-1.6-13.4,7.3-13.4,7.3c-5,6.4-4.5,7.8-4.5,11.1c0,1.6,0.5,2.9,1.8,5c-5.8,8.8-17.3,15.6-22.2,16.9
		c-5.2,1.4-2.9-10.2,0.5-18.2c3.4-8,4.6-12.7-0.2-11.8c-4.8,0.9-9.5,23.5-9.5,23.5c-0.2,0.3,0,1.6-0.2,2.1
		c-1.9,5-13.1,12.4-20.7,14.3c-7.6,1.9-10.2-8.3-11.4-15.9c-1.2-7.6,3.1-10,3.1-10s10.7-9.8,20.2-32.8c17.6-40.4,10.5-48.5,5.7-49
		c-4.8-0.5-13.3,0.7-24.6,32.5c-11.9,34.2-13.2,49-12.8,56.1c-0.9,1.3-6.9,9.4-15,10.3c-8.7,0.9,0.2-20.7,2.3-25.5
		s-5.2-6.8-11.8-7.5c-4.8-0.5-14.4,13.4-17.1,23.7l0.2-1.7c-0.7,2.3-0.8,3.8-4.2,5.7c-3.3,1.9-17.5,12-17.2,2c0-6.9,3.3-7.1,3.3-7.1
		s17.6-7.6,13.2-19.9c-2.2-5.2-7.5-2.9-11.5,0.5c-0.9-1.3-2.6-2.5-5.3-2.3c-7.3,0.5-16.2,14-16.2,14s-3.1,5-1.7-1.8
		c1.4-6.8,5.8-23.9,1.9-25c-2.3-0.6-8.2,27.2-8.2,27.2l-2.3,8.4c0,0-3.4,14.9-0.1,15.2c3.3,0.4,6.4-12.1,15.6-21.9
		c9-9.6,12.6-16.8,13.5-11.3c-0.7,0.8-1.3,1.5-1.6,2.2c-2.4,4.2-6.5,13.8-6.5,13.8c-4.4,19.5,10.6,15.5,10.6,15.5
		c7.2-1.2,15-7.1,15.8-7.6c0.1,1.4,0.6,2.5,1.4,3.3c6.2,6.6,10.2-1.8,10.2-1.8s1.2-1.6,3.7-5c2.5-3.4,2.3,0,2.3,0s2,9.6,9.3,10.5
		c6.4,0.8,13.9-7.4,15.8-9.5c0,0.2,0.1,0.4,0.1,0.6c0.5,4.5,5.4,17.1,18,17.1c10.7,0,21.4-11.1,24.5-14.6c1.6,2.6,4,5.3,7,5
		c9.7-1.5,19.6-12.7,23.7-17.8c1.3,1.9,3.1,4.2,5.4,7.4c-17.8,10.9-22.8,16.6-21.4,22.5c1.4,5.9,12.8,5.5,24.3-4.6
		c5-4.5,4.6-10.7,2.4-16.6l0.5,0.7c0,0,5.6-2.8,8.1-3.7c-3.3,17.8,10.8,14.1,10.8,14.1c7.6-1.3,20-10.2,20-10.2l0.3-1.6
		c-1.7,15.3,11.2,11.8,11.2,11.8c7.4-1.3,17.6-8,18.2-8.3C862.1,125,861.7,130.6,863.7,130.8z M845.6,103.1c2.9-3.6,5.7-6.2,6.3-5.7
		c0.6,0.5-1.3,3.8-4.2,7.4c-2.9,3.6-5.7,6.2-6.3,5.7C840.8,110,842.7,106.7,845.6,103.1z M814.1,103.1c2.9-3.6,5.7-6.2,6.3-5.7
		c0.6,0.5-1.3,3.8-4.2,7.4c-2.9,3.6-5.7,6.2-6.3,5.7C809.3,110,811.2,106.7,814.1,103.1z M652.3,103.1c2.9-3.6,5.7-6.2,6.3-5.7
		c0.6,0.5-1.3,3.8-4.2,7.4c-2.9,3.6-5.7,6.2-6.3,5.7C647.6,110,649.4,106.7,652.3,103.1z M688.3,103.4c-5.5,6.9-8.6,12.6-8.6,12.6
		s-7.8,9.8-5.7,1.4c2.1-8.3,8.1-19.5,12.4-20.7C690.7,95.6,693.8,96.6,688.3,103.4z M746.6,28.3c5-1.7-3.6,54.5-30.4,77.8
		C716.1,106.1,730.2,34,746.6,28.3z M751.1,119.5c0.1,0.1,0.1,0.3,0.2,0.4C751.1,119.8,751,119.6,751.1,119.5z M784.8,134
		c-4.8,3-12.8,5.9-14.6,4.1c-1.8-1.8,3.7-6.1,3.7-6.1s12.7-10.2,16.1-11.2C791.6,123.8,789.6,131,784.8,134z"/>
	<path class="st0" d="M495.1,166.2c0,0,17.6-7.6,13.2-19.9c-3.2-7.7-13.4,1.2-15.8,5.4c-2.4,4.2-6.5,13.8-6.5,13.8
		c-4.4,19.5,10.6,15.5,10.6,15.5c6.6-1.1,13.8-6.2,15.5-7.4c-0.5,3.7-0.6,6.6,0.3,7.2c3.3,2.1,5.5-0.2,9.8-5.9
		c4.3-5.7,10-15,10.2-9.5c0.2,5.5,0,13.8,6.4,13.8c6.4,0,12.1-5.5,10.7-6.7c-1.4-1.2-11.2,8.1-11.4,2.4c-0.2-5.7-1.2-15.5-5.9-15.5
		c-4.8,0-12.4,10.9-12.4,10.9s-3.8,5.2-2.4-1c1.4-6.2,4.5-18.8,4.5-18.8s1.7-2.4-1.4-3.3c-3.1-1-2.6,2.4-2.6,2.4s-3.2,10.7-5.1,19.6
		l0.3-3.5c-0.7,2.3-0.8,3.8-4.2,5.7c-3.3,1.9-17.5,12-17.2,2C491.8,166.5,495.1,166.2,495.1,166.2z M497.5,155
		c2.9-3.6,5.7-6.2,6.3-5.7c0.6,0.5-1.3,3.8-4.2,7.4c-2.9,3.6-5.7,6.2-6.3,5.7C492.8,161.9,494.6,158.6,497.5,155z"/>
	<path class="st0" d="M964.9,146.8c-7.2,0.9-15.4,14.9-15.4,14.9s-2.8,5.2-1.8-1.7c1.1-6.8,4.6-24.2,0.6-25
		c-2.3-0.5-6.8,27.6-6.8,27.6l-1.8,8.6c0,0-0.2,1.1-0.4,2.7c-0.4,0.4-0.9,0.8-1.6,1.2c-3.2,2.1-16.8,12.9-17.1,2.9
		c-0.4-6.9,2.9-7.3,2.9-7.3s17.2-8.5,12.1-20.5c-3.6-7.5-13.4,1.9-15.5,6.2c-2.2,4.3-5.8,14.1-5.8,14.1c-0.1,0.7-0.2,1.3-0.2,2
		c-0.4,1.4-1.1,2.6-3.4,4c-3.2,2.1-16.8,12.9-17.1,2.9c-0.4-6.9,2.9-7.3,2.9-7.3s17.2-8.5,12.1-20.5c-3.6-7.5-13.4,1.9-15.5,6.2
		c-1.4,2.8-3.5,8-4.7,11.3c-4.8,4.1-12.2,11.2-17.3,12.8c-5.9,1.9-6.2,1.5-5.5-2.6c0.7-4.1,8.2-31.3,9.8-18.7c0,0,1.8,2.5,3-1.7
		c1.2-4.2-2.2-7.5-8.8-4.8c-4.5,1.8-7.1,9.8-8.3,14.9c-5.8,8-15.4,14.3-19.8,15.7c-5.1,1.7-3.4-10-0.4-18.2c3-8.2,4-12.9-0.8-11.7
		c-4.4,1.1-7.8,21.1-8.2,23.7c-1,0.7-3.9,2.6-7,3.8c-3.8,1.4-2.6-8.6-3.3-11.4c-0.7-2.9,0-3.3-3.6-8.1c-3.6-4.8-11.9,2.9-18.1,11.4
		c-6.2,8.6-3.6-0.2-3.6-0.2s7.6-27.8,4-28.8c-3.6-1-5.5,10.9-6.9,18.3c-1.4,7.4-6.2,10.2-13.3,13.8c-7.1,3.6-1-12.1,0.7-22.8
		c1.7-10.7-3.6-4.8-5-2.1c-1.4,2.6-14.7,21.4-16.4,22.8c-1.7,1.4-4.8,5.2-2.9-1.7c6.2-17.8,6.9-20.2,2.1-20.7
		c-4.8-0.5-5.5,22.4-9,23.8c-3.6,1.4-5,1-5.2-5.9c-0.2-6.9-3.8-10.2-5.7-10.9c-1.9-0.7-5.2-0.7-13.8,10.5c-8.6,11.2-5.5-2.6-5.5-2.6
		s3.3-18.8-1.4-20c-4.8-1.2-10.9,5.7-21.4,20.2c-10.5,14.5-2.6-1-2.6-1s9.5-15.5,3.6-15.9c-5.9-0.5-10.2,25.2-15,26.4
		c-4.8,1.2-4.5-6.4-4.5-6.4s0.7-7.4-4.3-10.5c-5-3.1-11.7,6.4-17.4,12.8c-5.7,6.4-1.7-11.4-1.7-21.2c0-9.8-9.3-2.4-9.3-2.4
		s-11.9,15.2-18.1,23.1c-6.2,7.8,1.7-5.9,4.5-13.3c2.9-7.4,4-5.5,4.5-7.8c0.5-2.4-8.6,0.7-15.2,1.7s-7.8-2.4-11.4-2.1
		c-3.4,0.2-9.9,4.8-13.4,16.6c-5,3.6-13.4,11.2-19,12.6c-5.9,1.5-6.3,1.2-5.4-2.9c1-4,9.9-30.8,10.8-18.2c0,0,1.7,2.6,3.1-1.5
		c1.4-4.2-1.8-7.6-8.6-5.2c-6.8,2.4-10.2,18.6-10.2,18.6s-4,13.8,5,14.6c9,0.8,22.1-10.9,22.1-10.9l1-2.6
		c-1.4,10.9,8.6,11.6,8.6,11.6c17.1-5.7,11.4-24.3,9.3-26.6c-2.1-2.4,1-1.2,8.8-1.4c7.8-0.2,4,2.1,4,2.1s-2.4,5.7-4.5,10.7
		c-2.1,5-3.3,12.8-2.6,18.3c0.7,5.5,6.9,0.5,9.5-5.2c2.6-5.7,13.3-18.3,19-26.2s1.2,15.5,1,18.8c-0.2,3.3,1.7,6.9,5,8.6
		c3.3,1.7,13.1-13.1,17.4-17.4s3.8,7.1,5,12.8c1.2,5.7,7.4,2.9,7.4,2.9s-2.4,7.4,3.1,8.6c5.5,1.2,7.8-9.8,10.5-13.8
		c2.6-4,9-10.2,15.2-18.8c6.2-8.6,3.8,1,3.3,5.2c-0.5,4.3-1.9,16.6,3.6,19.5c5.5,2.9,7.4-7.1,15-14.5c7.6-7.4,5.9-0.5,5.5,3.8
		c-0.5,4.3,2.9,8.6,5.9,10.2c3.1,1.7,3.1-1,5.5-1s0.2,2.4,6.4,1.7c6.2-0.7,10.2-6.9,12.6-11.7c2.4-4.8,3.1-3.8,2.4,0.2
		c-0.7,4,1.7,6.9,2.1,8.6c0.5,1.7,6.2,4.5,12.1-1.2c5.9-5.7,3.6-0.2,3.6-0.2s-1,10.5,4.5,10.2c5.5-0.2,12.4-14,15.7-18.3
		c3.3-4.3,4.8-4.8,5,1.7c0.2,6.4,3.6,10.7,9.5,14c4.3,2.4,7.4-1.2,8.7-3.4c1.7,2.9,4.6,6.6,8.3,6.1c6.9-1.4,13.5-7.8,18.2-13.2
		c-0.5,3.7-1.1,12.4,6.1,12.7c7.8,0.3,18-8.7,20.8-11.4c-0.6,14.7,11.8,10.7,11.8,10.7c7-1.6,14.3-7.5,15.3-8.4
		c1.5,10.3,11.7,7,11.7,7c5-1.1,10.1-4.5,13-6.6c-0.2,3.8-0.1,7.5,1.6,7.6c3.3,0.2,5.8-12.5,14.4-22.7c8.6-10.2,11.8-17.8,13-11.8
		C972.8,155,972.1,146,964.9,146.8z M925.4,159.4c2.7-3.8,5.4-6.4,6-6c0.6,0.4-1.1,3.8-3.8,7.6c-2.7,3.8-5.4,6.4-6,6
		C921,166.5,922.7,163.1,925.4,159.4z M898.4,160.8c2.7-3.8,5.4-6.4,6-6c0.6,0.4-1.1,3.8-3.8,7.6s-5.4,6.4-6,6
		C894,167.9,895.7,164.6,898.4,160.8z M610.4,172.6c-3.3,5.5-6.7,8.8-7.6,6.2c-1-2.6-1-9,1.7-13.6c2.6-4.5,2.9-6.2,5.2-6.4
		C609.7,158.8,613.8,167.2,610.4,172.6z"/>
	<path class="st0" d="M513.4,185.2c0,0-38.1,2.9-37.1,7.4c1,4.5,8.8,3.6,26.2-1.7c17.4-5.2,40-2.4,40-2.4s7.8,2.4,8.6-0.2
		C551.7,185.7,535.8,183.6,513.4,185.2z"/>
	<path class="st0" d="M576.3,121.7c-1.3,0.6-1.8,2.4-1.8,6.8c0,4-3.3,6.2-4.1,6.7c-0.6,0.1-1.8,0.4-2.2,1.4c-0.1,0.4-0.3,1.1,0.5,2
		c0.5,0.5,1.1,0.8,1.9,0.8c0.1,0,0.3,0,0.4,0c2.2-0.3,4.8-2.6,6.7-5.9h0c1.1-2,4.6-8.7,1.6-10.9C579,122.1,577.6,121.1,576.3,121.7z
		"/>
	<path class="st0" d="M843.4,141c-0.3,0-0.5,0-0.6,0.1c-0.9,0.3-1.5,0.8-1.9,1.9l-0.5,2.6v0.4c0,0.6,0.1,1.1,0.5,1.5
		c1.1,1.2,2.5,1.7,3.8,2.2c0.1,0.1,0.3,0.1,0.5,0.1c0.4,0,0.8-0.3,0.9-0.8c0.3-0.7,0.5-1.4,0.5-2.2c0.4-0.7,0.5-1.5,0.6-2.5
		c-0.1-0.4-0.3-0.8-0.6-1.2l-1.6-1.5C844.4,141.3,843.9,141,843.4,141z"/>
</g>
</svg>
