<?xml version="1.0" encoding="utf-8"?>
<!-- Generator: Adobe Illustrator 20.0.0, SVG Export Plug-In . SVG Version: 6.00 Build 0)  -->
<svg version="1.1" id="Layer_1" xmlns="http://www.w3.org/2000/svg" xmlns:xlink="http://www.w3.org/1999/xlink" x="0px" y="0px"
	 viewBox="0 0 342.2 69.2" style="enable-background:new 0 0 342.2 69.2;" xml:space="preserve">
<style type="text/css">
	.st0{fill:#FFFFFF;}
</style>
<g>
	<path class="st0" d="M60.4,42.6c-0.2,0,0,3-2,2.7c-12.5-2.4-25.8-6.8-36.1-11.8C8.9,27.2,2.2,21.1,2.2,21c-0.3-0.3-0.2-0.6,0-0.8
		c0,0-0.1,0-0.1,0c-2.8,0.3-2.5,13-0.8,18.4c1.8,5.6,31.4,25.5,43.9,30.2C57.6,73.4,62.3,42.9,60.4,42.6z"/>
	<path class="st0" d="M40.8,4.3c-0.2-0.1-0.2-0.1-0.5-0.3c0.3,0.3,0.3,0.7,0.3,1.2c-0.1,1-1.2,2.2-3.1,3.6c-1.3,0.9-2.8,1.9-4.4,2.7
		C26.7,15,17.2,18.7,7.5,21c-0.3,0.1-0.5,0.3-0.1,0.8c0,0,5.7,6.1,20.5,12.6c7-3,12.6-7.1,15.4-12.6c0.2-0.3,0.4-0.8,0.5-1.2
		C44.9,18,42.7,5.5,40.8,4.3z"/>
	<path class="st0" d="M36.9,5.6C31.8,0.6,13-1,5,1c-1.1,0.3-1.3-0.7-1-1C2.5,0,1.5,11.9,3.3,11.7c9.9-1.2,19.5-0.6,23.4,1.8
		C32.3,11,38.7,7.4,36.9,5.6z"/>
</g>
<g>
	<path class="st0" d="M93.2,11.9c7.7-0.1,9.9,7.1,9.9,11.9c0,6.8-4,14.6-11.8,14.7c-3.2,0.1-5.7-1.3-8.5-4.7l0,11.3l-4.6,0l0-27.3
		C78.2,17.9,83.6,12,93.2,11.9L93.2,11.9z M90.3,35.9c6.2,0,8.1-6.3,8.1-10.3c0-3.9,0.2-10.9-7.6-10.9c-4.1,0-7.5,3-8.1,3.6v12.3
		C84.5,32.8,87.5,35.9,90.3,35.9z"/>
	<path class="st0" d="M112.4,13.1l0,16c0,3.6,1.1,6.6,5.2,6.6c3.8,0,8.5-3.8,8.5-6.6V13.1h4.7v20.6c-3.9,2.4-8.3,5-13.8,5
		c-4.3,0-9.5-3.5-9.5-8.2V13.1L112.4,13.1z"/>
	<path class="st0" d="M150.3,11.3c0,0-13.4,1.1-13.4,10.3c0,9.2,0,15.4,0,15.4h4.7c0-4.4,0-4.2,0-14.8c0-5.7,7.9-8.2,8.5-8.2
		C150.1,14,150.3,11.3,150.3,11.3z"/>
	<path class="st0" d="M336.3,37.1V21.5c0-3.6-1.1-6.6-5.2-6.6c-3.8,0-8.5,3.8-8.5,6.6V37h-4.7V16.9c3.9-2.4,8.3-5,13.8-5
		c4.3,0,9.4,3.5,9.4,8.2V37L336.3,37.1z"/>
	<path class="st0" d="M209.3,11.8c-4.3,0-7.7,1.6-10.9,3.4c-1.9-2.1-4.8-3.4-7.4-3.4c-5.6,0-8.8,2.6-12.8,5V37h4.7V21.4
		c0-2.8,3.6-6.6,7.4-6.6c4.1,0,5.2,3,5.2,6.6V37l4.9,0l0-15.5c0-2.9,4-6.8,7.4-6.8c4.1,0,4.7,3,4.7,6.7V37l4.8,0V20
		C217.5,15.3,213.6,11.8,209.3,11.8z"/>
	<polygon class="st0" points="279.4,14.3 274.8,14.3 274.8,37 279.5,37 	"/>
	<rect x="274.6" y="7" class="st0" width="4.7" height="4.2"/>
	<path class="st0" d="M268.4,36.1c-0.6,0-8.5-2.5-8.5-8.2c0-7.3,0-9.4,0-13.5h3.8v-3.1h-3.8c0-1.2,0-2.6,0-4.3h-4.7c0,0,0,1.7,0,4.4
		v3.2c0,4.2,0,9.5,0,14.1c0,9.2,13.4,10.3,13.4,10.3S268.4,36.1,268.4,36.1z"/>
	<path class="st0" d="M172.6,16.8c1.7,7.9-14.7,13.6-14.7,13.6c1.9,5.6,8.2,5,12.7,4.2l0.6,2.3c-14.7,4.1-19-4-19.4-9.8
		c-0.4-5.8,1.9-12.6,8.9-15C165.9,10.5,171.6,12.1,172.6,16.8z M156.9,27.3c0,0,11.5-3.3,11.5-8.1c0-3.3-2-5.7-5.9-4.4
		C159.7,15.7,155.3,20.3,156.9,27.3z"/>
	<path class="st0" d="M228.1,24.9c0-4.6,1.4-9.6,8.3-9.9c6.5,0.3,8.4,5.4,8.4,9.9c0,4.8-1.2,10.9-8.3,11
		C230.1,36,228.2,29.8,228.1,24.9L228.1,24.9z M223.3,26.1c0,7,3.1,12.4,11.3,12.4c9.4,0,15.2-7.5,15.1-14.5
		c0-6.8-2.8-11.9-11.4-11.9C229.7,12.1,223.3,19.3,223.3,26.1z"/>
	<path class="st0" d="M291.6,24.8c0-4.6,1.4-9.6,8.3-9.9c6.5,0.3,8.4,5.4,8.4,9.9c0,4.8-1.2,10.9-8.3,11
		C293.5,35.8,291.6,29.6,291.6,24.8L291.6,24.8z M286.7,26c0,7,3.1,12.4,11.3,12.4c9.4,0,15.2-7.5,15.1-14.5
		c0-6.8-2.8-11.9-11.5-11.9C293.1,12,286.7,19.2,286.7,26z"/>
</g>
<g>
	<path class="st0" d="M189.8,62.9v-9.7c-0.1,0.6-0.2,0.8-0.4,1.4l-3.4,8.3h-1.4l-3.1-7.8c-0.3-0.7-0.3-0.9-0.4-1.6v9.4h-1.8V50.7
		h2.2l3.6,9c0.1,0.4,0.1,0.5,0.2,1c0.1-0.4,0.1-0.5,0.2-1l3.7-9h2.2v12.2H189.8z"/>
	<path class="st0" d="M210.8,62.9l-1.3-3.4h-4.7l-1.2,3.4h-1.8l4.5-12.5h1.7l4.5,12.5H210.8z M207.2,52.5l-1.9,5.5h3.8L207.2,52.5z"
		/>
	<path class="st0" d="M229.1,62.9l-2.9-5h-1.6v5h-1.8V50.7h3.7c2.7,0,4.1,1.2,4.1,3.5c0,1.9-1,3.3-2.6,3.6l3.1,5.1H229.1z
		 M228.1,52.6c-0.4-0.3-0.5-0.3-1.8-0.3h-1.7v4h1.7c1.1,0,1.4,0,1.9-0.5c0.4-0.4,0.6-0.9,0.6-1.6C228.8,53.5,228.5,53,228.1,52.6z"
		/>
	<path class="st0" d="M241.6,62.9V50.7h1.8v12.2H241.6z M248.2,62.9l-4.7-6.1l4.5-6.1h2.3l-4.7,6.1l5,6.1H248.2z"/>
	<path class="st0" d="M261,62.9V50.7h6.8v1.6h-5.1v3.5h4.2v1.6h-4.2v3.8h5.2v1.6H261z"/>
	<path class="st0" d="M282.3,52.3v10.6h-1.7V52.3h-3.9v-1.6h9.6v1.6H282.3z"/>
	<path class="st0" d="M296.3,62.9V50.7h1.8v12.2H296.3z"/>
	<path class="st0" d="M318.8,63l-6.3-8.8c-0.4-0.5-0.5-0.8-0.6-1.1v9.8h-1.6V50.7h1.8l6.2,8.7c0.2,0.3,0.4,0.7,0.4,1.1v-9.8h1.6V63
		H318.8z"/>
	<path class="st0" d="M341.3,62.7c-1,0.3-2.3,0.5-3.3,0.5c-3.8,0-6.6-2.7-6.6-6.4c0-3.6,2.7-6.3,6.4-6.3c0.9,0,1.9,0.1,2.5,0.3
		c0.6,0.2,0.9,0.3,1.6,0.7l-0.7,1.6c-0.3-0.2-0.6-0.4-0.8-0.5c-0.7-0.3-1.8-0.6-2.6-0.6c-2.7,0-4.6,2-4.6,4.6c0,2.8,2.2,4.9,5,4.9
		c0.6,0,1-0.1,2.1-0.3v-3.8h1.8v5C341.8,62.5,341.5,62.6,341.3,62.7z"/>
</g>
</svg>
