<svg xmlns="http://www.w3.org/2000/svg" xmlns:xlink="http://www.w3.org/1999/xlink" id="Laag_1" x="0px" y="0px" viewBox="0 0 1550.97 524.09" fill="#fff" style="enable-background:new 0 0 1550.97 524.09;" xml:space="preserve" width="1550.97"  height="524.09" ><style type="text/css">	.st0{clip-path:url(#SVGID_2_);}</style><g>	<defs>		<rect id="SVGID_1_" width="1550.97" height="524.09"/>	</defs>	<clipPath id="SVGID_2_">		<use xlink:href="#SVGID_1_" style="overflow:visible;"/>	</clipPath>	<path class="st0" d="M583.5,128.16c3.97-22.88,24.75-28.49,33.62-28.49c3.74,0,4.2,0,8.17,0.71v39.22  c-5.37-1.4-11.91-1.64-15.18-1.64c-15.64,0-25.21,10.04-25.21,24.75v60.47h-40.16V102.24h38.76V128.16z"/>	<path class="st0" d="M633.22,163.18c0-34.56,25.92-63.51,67.48-63.51c36.66,0,64.44,22.65,64.44,65.37c0,1.64,0,3.51-0.24,5.14  h-93.15c0.47,10.97,13.07,23.35,35.95,23.35c11.67,0,22.65-4.2,33.16-13.08c3.26,3.27,16.57,19.85,19.84,22.89  c-16.11,17.04-36.89,22.41-56.5,22.41C659.38,225.75,633.22,197.73,633.22,163.18 M672.22,148.7h55.1  c-1.4-13.77-14.94-19.14-26.84-19.14C689.03,129.56,674.55,134.7,672.22,148.7"/>	<path class="st0" d="M846.38,99.67c14.71,0,32.45,3.97,50.43,18.44c-3.27,4.91-15.64,21.48-18.91,26.38  c-10.74-9.57-22.88-11.21-29.19-11.21c-18.44,0-31.29,12.14-31.29,29.42c0,17.28,12.84,29.66,31.29,29.66  c6.07,0,18.44-1.64,29.19-11.21c3.27,4.91,15.64,21.48,18.91,26.38c-17.98,14.48-35.72,18.21-50.43,18.21  c-41.33,0-69.34-27.55-69.34-63.04C777.04,127.22,805.06,99.67,846.38,99.67"/>	<rect x="914.53" y="54.38" class="st0" width="40.16" height="168.8"/>	<path class="st0" d="M1112.74,102.24v120.94h-40.16v-16.58c-7.7,11.91-19.61,19.14-36.65,19.14c-34.79,0-58.37-27.55-58.37-63.27  c0-35.02,22.65-62.81,58.14-62.81c15.88,0,29.42,7.48,36.89,18.68v-16.11H1112.74z M1045.5,194.23c15.88,0,28.02-11.44,28.02-30.59  c0-19.38-11.45-32.22-28.49-32.22c-17.05,0-27.08,14.01-27.08,31.05C1017.95,180.23,1028.46,194.23,1045.5,194.23"/>	<path class="st0" d="M1253.05,157.34v65.84h-40.16v-66.07c0-12.61-3.97-25.21-16.34-25.21c-12.84,0-16.58,11.9-16.58,25.45v65.84  h-40.16V102.24h40.16v16.11c6.31-11.67,17.51-18.68,30.59-18.68c17.28,0,28.72,7.71,34.79,19.15  c10.74-16.81,25.69-19.15,37.82-19.15c33.86,0,42.96,29.65,42.96,55.8v67.71h-40.16v-66.07c0-12.38-3.97-25.21-16.58-25.21  C1256.55,131.9,1253.05,143.8,1253.05,157.34"/>	<path class="st0" d="M1344.57,163.18c0-34.56,25.92-63.51,67.48-63.51c36.66,0,64.44,22.65,64.44,65.37c0,1.64,0,3.51-0.23,5.14  h-93.16c0.47,10.97,13.08,23.35,35.96,23.35c11.67,0,22.65-4.2,33.15-13.08c3.27,3.27,16.58,19.85,19.85,22.89  c-16.11,17.04-36.89,22.41-56.5,22.41C1370.72,225.75,1344.57,197.73,1344.57,163.18 M1383.56,148.7h55.1  c-1.4-13.77-14.94-19.14-26.84-19.14C1400.37,129.56,1385.89,134.7,1383.56,148.7"/>	<path class="st0" d="M657.98,356.57v65.84h-40.16v-66.07c0-12.61-3.96-25.21-16.34-25.21c-12.84,0-16.58,11.9-16.58,25.45v65.84  h-40.16V301.46h40.16v16.11c6.31-11.67,17.51-18.68,30.59-18.68c17.28,0,28.72,7.7,34.79,19.15  c10.74-16.81,25.69-19.15,37.82-19.15c33.86,0,42.97,29.65,42.97,55.8v67.71H690.9v-66.07c0-12.38-3.97-25.21-16.58-25.21  C661.48,331.12,657.98,343.03,657.98,356.57"/>	<path class="st0" d="M884.91,301.47v120.94h-40.16v-16.58c-7.71,11.91-19.61,19.15-36.65,19.15c-34.79,0-58.37-27.55-58.37-63.27  c0-35.02,22.64-62.81,58.13-62.81c15.88,0,29.42,7.48,36.89,18.68v-16.11H884.91z M817.67,393.46c15.88,0,28.02-11.45,28.02-30.59  c0-19.38-11.45-32.22-28.49-32.22c-17.04,0-27.08,14.01-27.08,31.05C790.11,379.45,800.62,393.46,817.67,393.46"/>	<path class="st0" d="M987.14,301.47h43.19v5.37c-13.08,16.58-25.68,33.62-38.76,50.2l14.01,23.35c5.37,8.17,9.81,10.04,15.88,10.04  c2.57,0,8.64-1.4,12.38-3.97c4.67,8.64,9.1,17.51,13.54,26.39c-11.44,9.57-23.35,12.14-33.85,12.14  c-19.61,0-31.52-7.24-44.83-31.29l-14.01-25.45v54.17h-40.16v-168.8h40.16v96.66C965.66,334.16,976.4,317.81,987.14,301.47"/>	<path class="st0" d="M1046.2,362.4c0-34.55,25.92-63.5,67.48-63.5c36.66,0,64.44,22.65,64.44,65.37c0,1.64,0,3.51-0.24,5.14h-93.16  c0.47,10.97,13.08,23.35,35.96,23.35c11.67,0,22.65-4.2,33.16-13.08c3.26,3.27,16.57,19.85,19.84,22.89  c-16.11,17.04-36.89,22.41-56.5,22.41C1072.35,424.98,1046.2,396.96,1046.2,362.4 M1085.19,347.93h55.1  c-1.4-13.77-14.94-19.15-26.85-19.15C1102,328.78,1087.53,333.92,1085.19,347.93"/>	<path class="st0" d="M1236.01,327.38c3.97-22.88,24.75-28.49,33.63-28.49c3.73,0,4.2,0,8.17,0.7v39.22  c-5.37-1.4-11.91-1.64-15.18-1.64c-15.64,0-25.21,10.04-25.21,24.75v60.47h-40.16V301.47h38.76V327.38z"/>	<path class="st0" d="M1314.92,379.22c3.03,12.84,13.54,16.57,23.11,16.57c7.24,0,14.01-2.33,14.01-7.93c0-3.27-2.1-5.14-8.63-7.94  l-20.08-8.4c-19.15-7.01-32.22-18.91-32.22-35.96c0-22.17,22.18-36.65,49.26-36.65c16.81,0,35.49,5.61,46,27.55l-30.12,11.44  c-3.04-8.87-11.45-10.73-16.35-10.73c-6.54,0-11.44,3.27-11.44,8.17c0,4.2,3.97,6.54,10.04,8.64l16.12,6.54  c28.01,10.28,35.02,24.52,35.02,37.36c0,24.28-24.52,37.12-52.07,37.12c-22.42,0-45.29-8.4-51.83-34.09L1314.92,379.22z"/>	<path class="st0" d="M300.38,285.4c3.87,18.32,11.86,30.7,26.83,30.7c6.19,0,13.41-2.58,18.83-7.22l15.22,30.44  c-12.38,9.03-24.51,14.71-43.08,14.71c-44.37,0-57.53-46.69-60.11-65.52h-17.28v62.68h-45.66V170.61h83.32  c39.21,0,60.62,28.12,60.62,60.88C339.07,257.54,324.63,277.92,300.38,285.4 M273.03,254.19c12.38,0,20.12-9.55,20.12-22.19  c0-12.9-7.74-22.7-20.12-22.7h-32.24v44.89H273.03z"/>	<path class="st0" d="M264.32,100.61c-89.17,0-161.71,72.54-161.71,161.7c0,89.17,72.54,161.7,161.71,161.7  c89.17,0,161.7-72.54,161.7-161.7C426.02,173.15,353.48,100.61,264.32,100.61 M264.32,464.86c-111.68,0-202.54-90.86-202.54-202.54  S152.63,59.77,264.32,59.77s202.54,90.86,202.54,202.54S376,464.86,264.32,464.86"/></g></svg>