<?xml version="1.0" encoding="utf-8"?>
<!-- Generator: Adobe Illustrator 16.0.0, SVG Export Plug-In . SVG Version: 6.00 Build 0)  -->
<!DOCTYPE svg PUBLIC "-//W3C//DTD SVG 1.1//EN" "http://www.w3.org/Graphics/SVG/1.1/DTD/svg11.dtd">
<svg version="1.1" id="Layer_1" xmlns="http://www.w3.org/2000/svg" xmlns:xlink="http://www.w3.org/1999/xlink" x="0px" y="0px"
	 width="248.959px" height="37.459px" viewBox="0 0 248.959 37.459" enable-background="new 0 0 248.959 37.459"
	 xml:space="preserve">
<path fill="#FFFFFF" d="M222.705,21.034c0.03-2.049-0.295-4.192-1.541-5.916c-1.25-1.719-3.416-2.673-5.529-2.673
	c-4.695,0-7.338,3.595-7.338,8.052c0,4.491,2.94,7.641,7.457,7.641c5.113,0,6.865-4.461,6.865-5.202l-4.039-0.298
	c0,1.399-1.336,2.38-2.675,2.38c-1.903,0-2.917-1.458-2.917-3.241l0.029-0.742H222.705z M212.988,18.451
	c0.15-1.727,0.895-3.154,2.825-3.154c1.906,0,2.44,1.516,2.53,3.154H212.988z"/>
<path fill="#FFFFFF" d="M151.642,12.743v15.096h4.367v-7.995c0-1.635-0.089-3.894,2.198-3.894c2.261,0,1.964,2.317,1.964,3.894
	v7.995h4.365v-7.995c0-0.803-0.029-1.99,0.298-2.703c0.327-0.714,1.13-1.16,1.903-1.16c0.924,0,1.635,0.266,1.874,1.22
	c0.147,0.563,0.09,2.048,0.09,2.643v7.995h4.366v-9.422c0-1.514,0.207-3.238-0.803-4.428c-0.894-1.067-2.344-1.544-3.685-1.544
	c-1.871,0-3.627,0.835-4.399,2.616c-0.893-1.781-2.141-2.616-4.129-2.616c-1.963,0-3.418,0.835-4.193,2.616h-0.057v-2.318H151.642z"
	/>
<path fill="#FFFFFF" d="M189.563,25.581v-7.04c0-1.817,0.147-3.48-1.396-4.729c-1.219-1.009-3.236-1.367-4.784-1.367
	c-3.183,0-6.743,1.069-7.188,4.724l4.127,0.389c0-1.488,1.219-2.201,2.616-2.201c0.653,0,1.398,0.208,1.785,0.713
	c0.444,0.564,0.388,1.34,0.388,1.993v0.356c-1.846,0.179-4.252,0.297-5.977,0.951c-1.991,0.742-3.387,2.256-3.387,4.485
	c0,2.854,2.078,4.281,4.75,4.281c2.262,0,3.572-0.863,4.82-2.644c-0.029,0.769,0.029,1.571,0.209,2.346h4.334
	C189.623,27.095,189.563,26.352,189.563,25.581 M184.515,24.128c-0.505,0.771-1.311,1.247-2.201,1.247
	c-1.219,0-1.935-0.802-1.935-1.995c0-2.198,3.062-2.585,4.731-2.762v0.593C185.111,22.282,185.139,23.172,184.515,24.128"/>
<path fill="#FFFFFF" d="M248.337,16.398c-1.04-2.825-2.97-3.952-5.941-3.952c-3.213,0-6.448,1.335-6.448,5.05
	c0,1.903,1.185,3.449,2.97,4.073c0.948,0.326,3.445,0.772,4.486,0.895c0.805,0.087,1.695,0.266,1.695,1.276
	c0,1.13-1.813,1.428-2.646,1.428c-1.397,0-3.033-0.477-3.327-2.022l-3.773,0.533c0.803,3.388,3.744,4.458,6.893,4.458
	c1.664,0,3.33-0.298,4.695-1.25c1.279-0.917,2.019-2.313,2.019-3.889c0-6.808-9.065-3.599-9.065-6.423
	c0-1.099,1.369-1.335,2.263-1.335c1.426,0,2.558,0.592,2.942,2.019L248.337,16.398z"/>
<path fill="#FFFFFF" d="M225.356,12.743v15.096h4.363v-5.765c0-2.675,0.415-5.376,3.744-5.2v-4.368l-0.74-0.061
	c-1.903-0.147-2.796,1.517-3.241,3.123h-0.058v-2.825H225.356z"/>
<polygon fill="#FFFFFF" points="192.55,8.959 192.55,27.839 196.913,27.839 196.913,23.975 199.353,21.003 202.529,27.839 
	207.435,27.839 202.529,17.882 206.838,12.742 202.228,12.742 196.913,19.063 196.913,8.959 "/>
<path fill="#FFFFFF" d="M68.561,21.036c0.032-2.047-0.295-4.188-1.542-5.916c-1.248-1.719-3.415-2.67-5.527-2.67
	c-4.695,0-7.34,3.592-7.34,8.049c0,4.491,2.941,7.638,7.458,7.638c5.113,0,6.864-4.455,6.864-5.198l-4.039-0.297
	c0,1.398-1.34,2.377-2.675,2.377c-1.905,0-2.916-1.456-2.916-3.241l0.031-0.742H68.561z M61.67,15.3
	c1.904,0,2.436,1.519,2.528,3.156h-5.355C58.994,16.729,59.735,15.3,61.67,15.3"/>
<path fill="#FFFFFF" d="M84.054,18.241c-0.295-3.536-3.086-5.79-6.592-5.79c-4.761,0-7.552,3.354-7.552,7.993
	c0,4.458,2.704,7.693,7.28,7.693c3.686,0,6.509-2.225,6.864-5.969l-4.157-0.239c-0.148,1.398-0.922,2.62-2.465,2.62
	c-2.501,0-2.53-2.62-2.53-4.463c0-1.932,0.295-4.31,2.706-4.31c1.575,0,2.289,1.339,2.289,2.705L84.054,18.241z"/>
<rect x="85.911" y="7.459" fill="#FFFFFF" width="4.363" height="20.383"/>
<path fill="#FFFFFF" d="M107.311,25.583v-7.042c0-1.811,0.15-3.479-1.396-4.724c-1.216-1.01-3.238-1.366-4.781-1.366
	c-3.182,0-6.748,1.069-7.192,4.723l4.126,0.387c0-1.489,1.219-2.201,2.616-2.201c0.658,0,1.398,0.208,1.785,0.712
	c0.445,0.566,0.387,1.339,0.387,1.994v0.356c-1.843,0.179-4.252,0.297-5.976,0.95c-1.988,0.743-3.383,2.257-3.383,4.486
	c0,2.856,2.074,4.278,4.75,4.278c2.258,0,3.569-0.86,4.817-2.641c-0.029,0.771,0.029,1.572,0.208,2.346h4.337
	C107.372,27.098,107.311,26.354,107.311,25.583 M102.261,24.13c-0.503,0.771-1.305,1.25-2.201,1.25
	c-1.219,0-1.929-0.805-1.929-1.995c0-2.2,3.061-2.588,4.725-2.764v0.592C102.856,22.286,102.885,23.177,102.261,24.13"/>
<path fill="#FFFFFF" d="M148.847,21.036c0.027-2.047-0.297-4.188-1.543-5.916c-1.252-1.719-3.418-2.67-5.529-2.67
	c-4.697,0-7.338,3.592-7.338,8.049c0,4.491,2.938,7.638,7.455,7.638c5.111,0,6.862-4.455,6.862-5.198l-4.034-0.297
	c0,1.398-1.34,2.377-2.68,2.377c-1.9,0-2.914-1.456-2.914-3.241l0.031-0.742H148.847z M141.954,15.3
	c1.903,0,2.438,1.519,2.526,3.156h-5.354C139.279,16.729,140.021,15.3,141.954,15.3"/>
<path fill="#FFFFFF" d="M45.001,12.756v15.096h4.363v-5.766c0-2.675,0.415-5.375,3.744-5.199V12.52l-0.74-0.061
	c-1.904-0.147-2.796,1.517-3.241,3.123h-0.058v-2.825H45.001z"/>
<path fill="#FFFFFF" d="M16.143,27.71h-4.281V9.355h7.733c1.632,0,3.291,0.025,4.709,0.936c1.498,0.99,2.328,2.783,2.328,4.576
	c0,2.086-1.205,4.013-3.185,4.735l3.399,8.108h-4.763l-2.809-7.251h-3.131V27.71z M16.143,17.302h2.355
	c0.883,0,1.846,0.08,2.622-0.376c0.695-0.427,1.07-1.284,1.07-2.086c0-0.723-0.428-1.499-1.043-1.874
	c-0.723-0.454-1.954-0.347-2.757-0.347h-2.247V17.302z"/>
<path fill="#FFFFFF" d="M32.784,31.089c2.907-3.301,4.675-7.626,4.675-12.36C37.459,8.401,29.057,0,18.73,0
	C8.402,0,0,8.401,0,18.729c0,10.329,8.402,18.73,18.73,18.73c2.668,0,5.208-0.565,7.508-1.576l7.758,1.495L32.784,31.089z
	 M3.568,18.729c0-8.361,6.801-15.161,15.162-15.161c8.36,0,15.161,6.8,15.161,15.161c0,8.361-6.801,15.163-15.161,15.163
	C10.369,33.892,3.568,27.09,3.568,18.729"/>
<path fill="#FFFFFF" d="M110.214,12.743v15.096h4.367v-7.995c0-1.635-0.088-3.894,2.199-3.894c2.261,0,1.964,2.317,1.964,3.894
	v7.995h4.365v-7.995c0-0.803-0.029-1.99,0.298-2.703c0.326-0.714,1.13-1.16,1.903-1.16c0.923,0,1.634,0.266,1.875,1.22
	c0.147,0.563,0.09,2.048,0.09,2.643v7.995h4.365v-9.422c0-1.514,0.209-3.238-0.803-4.428c-0.893-1.067-2.343-1.544-3.684-1.544
	c-1.872,0-3.627,0.835-4.399,2.616c-0.893-1.781-2.141-2.616-4.129-2.616c-1.963,0-3.419,0.835-4.193,2.616h-0.058v-2.318H110.214z"
	/>
</svg>
