<?xml version="1.0" encoding="utf-8"?>
<!-- Generator: Adobe Illustrator 14.0.0, SVG Export Plug-In . SVG Version: 6.00 Build 43363)  -->
<!DOCTYPE svg PUBLIC "-//W3C//DTD SVG 1.1//EN" "http://www.w3.org/Graphics/SVG/1.1/DTD/svg11.dtd">
<svg version="1.1" id="Layer_1" xmlns="http://www.w3.org/2000/svg" xmlns:xlink="http://www.w3.org/1999/xlink" x="0px" y="0px"
	 width="403px" height="70.047px" viewBox="0 0 403 70.047" enable-background="new 0 0 403 70.047" xml:space="preserve">
<path fill="#00AEEF" d="M398.114,53.559c0,5.753-4.664,10.417-10.417,10.417c-5.755,0-10.418-4.664-10.418-10.417
	s4.663-10.417,10.418-10.417C393.45,43.142,398.114,47.806,398.114,53.559"/>
<path fill="#00AEEF" d="M33.402,30.447c-0.088-1.496-0.88-2.64-2.024-3.432c-1.056-0.88-2.464-1.32-3.872-1.32
	c-2.463,0-5.279,0.528-5.279,3.52c0,1.32,1.055,1.937,2.024,2.377c2.903,1.231,9.503,1.584,15.311,3.52
	c5.808,1.848,10.912,5.279,10.912,12.76c0,12.672-12.144,16.104-23.232,16.104c-10.736,0-22.527-4.313-22.791-16.104h16.632
	c0.088,1.584,0.792,2.904,2.111,4.048c0.88,0.792,2.552,1.319,4.665,1.319c2.287,0,5.895-0.879,5.895-3.52
	c0-2.64-1.496-3.432-9.592-4.84C10.875,42.592,5.507,38.367,5.507,30.535c0-11.527,12.408-14.52,21.56-14.52
	c9.855,0,21.735,2.729,22.175,14.432H33.402z"/>
<rect x="54.347" y="17.16" fill="#00AEEF" width="17.423" height="45.67"/>
<path fill="#00AEEF" d="M99.137,17.16h9.328v10.735h-9.328v15.928c0,4.224,0.968,6.071,5.368,6.071c1.32,0,2.64-0.088,3.96-0.264
	V62.83c-3.52,0-7.48,0.528-11.176,0.528c-7.392,0-15.575-1.144-15.575-13.64V27.896H73.97V17.16h7.744V3.256h17.423V17.16z"/>
<path fill="#00AEEF" d="M125.185,43.911c0.44,5.192,3.432,8.888,8.888,8.888c2.816,0,5.896-1.056,7.304-3.256h16.279
	c-3.52,9.855-13.111,14.432-23.495,14.432c-14.608,0-25.607-8.624-25.607-23.848c0-13.287,9.68-24.111,24.111-24.111
	c18.128,0,25.959,10.12,25.959,27.896H125.185z M141.904,34.848c0-4.225-3.168-7.656-7.656-7.656c-5.192,0-8.183,2.729-8.975,7.656
	H141.904z"/>
<polygon fill="#FFFFFF" points="220.399,62.83 202.536,62.83 195.936,34.76 195.759,34.76 188.984,62.83 171.121,62.83 
	156.865,17.16 174.993,17.16 181.768,45.407 181.944,45.407 187.752,17.16 204.032,17.16 210.103,45.407 210.456,45.407 
	216.792,17.16 234.919,17.16 "/>
<path fill="#FFFFFF" d="M258.415,63.975c-17.159,0-24.902-11.351-24.902-24.023c0-12.672,7.743-23.936,24.902-23.936
	s24.902,11.264,24.902,23.936C283.317,52.624,275.574,63.975,258.415,63.975 M258.415,28.688c-6.601,0-7.479,6.424-7.479,11.264
	c0,4.841,0.879,11.352,7.479,11.352s7.479-6.511,7.479-11.352C265.895,35.111,265.016,28.688,258.415,28.688"/>
<path fill="#FFFFFF" d="M287.367,17.16h16.72v7.304h0.176c2.815-5.456,6.511-8.448,12.847-8.448c1.761,0,3.433,0.264,5.104,0.705
	v15.398c-1.76-0.615-3.344-1.144-6.864-1.144c-6.864,0-10.559,4.048-10.559,13.815V62.83h-17.424V17.16z"/>
<polygon fill="#FFFFFF" points="323.27,0 340.693,0 340.693,30.359 351.781,17.16 371.492,17.16 355.212,34.407 374.043,62.83 
	353.101,62.83 343.773,46.287 340.693,49.631 340.693,62.83 323.27,62.83 "/>
</svg>
